{
	"asset":{
		"generator":"Khronos glTF Blender I/O v4.3.47",
		"version":"2.0"
	},
	"scene":0,
	"scenes":[
		{
			"name":"Scene",
			"nodes":[
				0,
				1,
				2,
				3,
				4,
				5,
				6,
				7,
				8,
				9,
				10
			]
		}
	],
	"nodes":[
		{
			"mesh":0,
			"name":"Turbine stg-200 - comp runner-1",
			"rotation":[
				0.0010003185598179698,
				0,
				-0.9999994039535522,
				0.0005950487684458494
			],
			"scale":[
				0.0337354950606823,
				0.03373550623655319,
				0.033735498785972595
			],
			"translation":[
				-3.304382801055908,
				0.5354424118995667,
				-1.4265886545181274
			]
		},
		{
			"mesh":1,
			"name":"Turbine stg-200 - Compressor Blade - in-1",
			"rotation":[
				0.0010003185598179698,
				0,
				-0.9999994039535522,
				0.0005950487684458494
			],
			"scale":[
				0.0337354950606823,
				0.033735502511262894,
				0.033735498785972595
			],
			"translation":[
				3.295804023742676,
				0.5398662686347961,
				-1.3995440006256104
			]
		},
		{
			"mesh":2,
			"name":"Turbine stg-200 - Compressor Blade-1",
			"rotation":[
				0.0010003185598179698,
				0,
				-0.9999994039535522,
				0.0005950487684458494
			],
			"scale":[
				0.0337354950606823,
				0.033735498785972595,
				0.03373550623655319
			],
			"translation":[
				0.13025225698947906,
				0.5362395644187927,
				-1.4057284593582153
			]
		},
		{
			"mesh":3,
			"name":"Turbine stg-200 - coplete-1",
			"rotation":[
				0.0010003185598179698,
				0,
				-0.9999994039535522,
				0.0005950487684458494
			],
			"scale":[
				0.0337354950606823,
				0.033735502511262894,
				0.033735502511262894
			],
			"translation":[
				-2.232228994369507,
				0.5335730910301208,
				-1.410593867301941
			]
		},
		{
			"mesh":4,
			"name":"Turbine stg-200 - Drive Turbine-1",
			"rotation":[
				0.0010003185598179698,
				0,
				-0.9999994039535522,
				0.0005950487684458494
			],
			"scale":[
				0.0337354950606823,
				0.033735502511262894,
				0.033735502511262894
			],
			"translation":[
				-5.494856834411621,
				0.529662013053894,
				-1.4170030355453491
			]
		},
		{
			"mesh":5,
			"name":"Turbine stg-200 - shaft-1",
			"rotation":[
				0.00018141293548978865,
				0.7692476511001587,
				-0.6389498710632324,
				0.0011496997904032469
			],
			"scale":[
				0.0337354950606823,
				0.033735502511262894,
				0.03373550623655319
			],
			"translation":[
				0.05091508477926254,
				0.48721736669540405,
				-1.554263710975647
			]
		},
		{
			"mesh":6,
			"name":"Turbine stg-200 - stator comp - in-1",
			"rotation":[
				0.0010003185598179698,
				0,
				-0.9999994039535522,
				0.0005950487684458494
			],
			"scale":[
				0.0337354950606823,
				0.033735502511262894,
				0.033735502511262894
			],
			"translation":[
				3.009521484375,
				0.5396728515625,
				-1.3999863862991333
			]
		},
		{
			"mesh":7,
			"name":"Turbine stg-200 - stator comp-1",
			"rotation":[
				0.0010003185598179698,
				0,
				-0.9999994039535522,
				0.0005950487684458494
			],
			"scale":[
				0.0337354950606823,
				0.033735498785972595,
				0.033735498785972595
			],
			"translation":[
				0.0521492101252079,
				0.5362440943717957,
				-1.4059504270553589
			]
		},
		{
			"mesh":8,
			"name":"Turbine stg-200 - Turbine stg-100-1 Compressor Shell-1",
			"rotation":[
				0.00018141293548978865,
				0.7692476511001587,
				-0.6389498710632324,
				0.0011496997904032469
			],
			"scale":[
				0.0337354950606823,
				0.033735502511262894,
				0.03373550623655319
			],
			"translation":[
				0.05091508477926254,
				0.48721736669540405,
				-1.554263710975647
			]
		},
		{
			"mesh":9,
			"name":"Turbine stg-200 - Turbine stg-100-1 gear H1-1",
			"rotation":[
				0.00018141293548978865,
				0.7692476511001587,
				-0.6389498710632324,
				0.0011496997904032469
			],
			"scale":[
				0.0337354950606823,
				0.033735502511262894,
				0.03373550623655319
			],
			"translation":[
				0.05091508477926254,
				0.48721736669540405,
				-1.554263710975647
			]
		},
		{
			"mesh":10,
			"name":"Turbine stg-200 - Turbine stg-100-1 Gear H2-1",
			"rotation":[
				0.00018141293548978865,
				0.7692476511001587,
				-0.6389498710632324,
				0.0011496997904032469
			],
			"scale":[
				0.0337354950606823,
				0.033735502511262894,
				0.03373550623655319
			],
			"translation":[
				0.05091508477926254,
				0.48721736669540405,
				-1.554263710975647
			]
		}
	],
	"animations":[
		{
			"channels":[
				{
					"sampler":0,
					"target":{
						"node":0,
						"path":"rotation"
					}
				}
			],
			"name":"Turbine stg-200 - comp runner-1\u52a8\u4f5c",
			"samplers":[
				{
					"input":33,
					"interpolation":"LINEAR",
					"output":34
				}
			]
		},
		{
			"channels":[
				{
					"sampler":0,
					"target":{
						"node":1,
						"path":"rotation"
					}
				}
			],
			"name":"Turbine stg-200 - Compressor Blade - in-1\u52a8\u4f5c.001",
			"samplers":[
				{
					"input":35,
					"interpolation":"LINEAR",
					"output":36
				}
			]
		},
		{
			"channels":[
				{
					"sampler":0,
					"target":{
						"node":2,
						"path":"rotation"
					}
				}
			],
			"name":"Turbine stg-200 - Compressor Blade-1\u52a8\u4f5c",
			"samplers":[
				{
					"input":33,
					"interpolation":"LINEAR",
					"output":37
				}
			]
		},
		{
			"channels":[
				{
					"sampler":0,
					"target":{
						"node":3,
						"path":"rotation"
					}
				}
			],
			"name":"Turbine stg-200 - coplete-1\u52a8\u4f5c",
			"samplers":[
				{
					"input":33,
					"interpolation":"LINEAR",
					"output":38
				}
			]
		},
		{
			"channels":[
				{
					"sampler":0,
					"target":{
						"node":4,
						"path":"rotation"
					}
				}
			],
			"name":"Turbine stg-200 - Drive Turbine-1\u52a8\u4f5c",
			"samplers":[
				{
					"input":33,
					"interpolation":"LINEAR",
					"output":39
				}
			]
		},
		{
			"channels":[
				{
					"sampler":0,
					"target":{
						"node":6,
						"path":"rotation"
					}
				}
			],
			"name":"Turbine stg-200 - stator comp - in-1\u52a8\u4f5c.001",
			"samplers":[
				{
					"input":35,
					"interpolation":"LINEAR",
					"output":40
				}
			]
		},
		{
			"channels":[
				{
					"sampler":0,
					"target":{
						"node":7,
						"path":"rotation"
					}
				}
			],
			"name":"Turbine stg-200 - stator comp-1\u52a8\u4f5c",
			"samplers":[
				{
					"input":33,
					"interpolation":"LINEAR",
					"output":41
				}
			]
		}
	],
	"materials":[
		{
			"doubleSided":true,
			"name":"\u6750\u8d28.009",
			"pbrMetallicRoughness":{
				"baseColorFactor":[
					0.800000011920929,
					0.800000011920929,
					0.800000011920929,
					1
				],
				"metallicFactor":0.3650793731212616,
				"roughnessFactor":0
			}
		},
		{
			"doubleSided":true,
			"name":"\u6750\u8d28",
			"pbrMetallicRoughness":{
				"metallicFactor":0.9129629731178284,
				"roughnessFactor":0
			}
		},
		{
			"doubleSided":true,
			"name":"\u6750\u8d28.002",
			"pbrMetallicRoughness":{
				"baseColorFactor":[
					0.3842892646789551,
					0.12605905532836914,
					0,
					1
				],
				"metallicFactor":0.29629606008529663,
				"roughnessFactor":0
			}
		},
		{
			"doubleSided":true,
			"name":"\u6750\u8d28.008",
			"pbrMetallicRoughness":{
				"metallicFactor":0.3492063283920288,
				"roughnessFactor":0
			}
		},
		{
			"doubleSided":true,
			"name":"\u6750\u8d28.010",
			"pbrMetallicRoughness":{
				"baseColorFactor":[
					0.800000011920929,
					0.800000011920929,
					0.800000011920929,
					1
				],
				"metallicFactor":0.05291005223989487,
				"roughnessFactor":0
			}
		}
	],
	"meshes":[
		{
			"name":"Turbine stg-200 - comp runner-1",
			"primitives":[
				{
					"attributes":{
						"POSITION":0,
						"NORMAL":1
					},
					"indices":2,
					"material":0
				}
			]
		},
		{
			"name":"Turbine stg-200 - Compressor Blade - in-1",
			"primitives":[
				{
					"attributes":{
						"POSITION":3,
						"NORMAL":4
					},
					"indices":5,
					"material":1
				}
			]
		},
		{
			"name":"Turbine stg-200 - Compressor Blade-1",
			"primitives":[
				{
					"attributes":{
						"POSITION":6,
						"NORMAL":7
					},
					"indices":8,
					"material":1
				}
			]
		},
		{
			"name":"Turbine stg-200 - coplete-1",
			"primitives":[
				{
					"attributes":{
						"POSITION":9,
						"NORMAL":10
					},
					"indices":11,
					"material":1
				}
			]
		},
		{
			"name":"Turbine stg-200 - Drive Turbine-1",
			"primitives":[
				{
					"attributes":{
						"POSITION":12,
						"NORMAL":13
					},
					"indices":14,
					"material":1
				}
			]
		},
		{
			"name":"Turbine stg-200 - shaft-1",
			"primitives":[
				{
					"attributes":{
						"POSITION":15,
						"NORMAL":16
					},
					"indices":17,
					"material":1
				}
			]
		},
		{
			"name":"Turbine stg-200 - stator comp - in-1",
			"primitives":[
				{
					"attributes":{
						"POSITION":18,
						"NORMAL":19
					},
					"indices":20,
					"material":2
				}
			]
		},
		{
			"name":"Turbine stg-200 - stator comp-1",
			"primitives":[
				{
					"attributes":{
						"POSITION":21,
						"NORMAL":22
					},
					"indices":23,
					"material":2
				}
			]
		},
		{
			"name":"Turbine stg-200 - Turbine stg-100-1 Compressor Shell-1",
			"primitives":[
				{
					"attributes":{
						"POSITION":24,
						"NORMAL":25
					},
					"indices":26,
					"material":3
				}
			]
		},
		{
			"name":"Turbine stg-200 - Turbine stg-100-1 gear H1-1",
			"primitives":[
				{
					"attributes":{
						"POSITION":27,
						"NORMAL":28
					},
					"indices":29,
					"material":0
				}
			]
		},
		{
			"name":"Turbine stg-200 - Turbine stg-100-1 Gear H2-1",
			"primitives":[
				{
					"attributes":{
						"POSITION":30,
						"NORMAL":31
					},
					"indices":32,
					"material":4
				}
			]
		}
	],
	"accessors":[
		{
			"bufferView":0,
			"componentType":5126,
			"count":6015,
			"max":[
				11.872373580932617,
				44.719696044921875,
				44.6414909362793
			],
			"min":[
				-18.127626419067383,
				-45.457855224609375,
				-45.442996978759766
			],
			"type":"VEC3"
		},
		{
			"bufferView":1,
			"componentType":5126,
			"count":6015,
			"type":"VEC3"
		},
		{
			"bufferView":2,
			"componentType":5123,
			"count":36090,
			"type":"SCALAR"
		},
		{
			"bufferView":3,
			"componentType":5126,
			"count":9581,
			"max":[
				31.448257446289062,
				55.595855712890625,
				55.562625885009766
			],
			"min":[
				-8.551742553710938,
				-55.69319152832031,
				-55.70561599731445
			],
			"type":"VEC3"
		},
		{
			"bufferView":4,
			"componentType":5126,
			"count":9581,
			"type":"VEC3"
		},
		{
			"bufferView":5,
			"componentType":5123,
			"count":55806,
			"type":"SCALAR"
		},
		{
			"bufferView":6,
			"componentType":5126,
			"count":51320,
			"max":[
				41.36111831665039,
				35.69814682006836,
				35.69747543334961
			],
			"min":[
				-38.63887405395508,
				-35.696998596191406,
				-35.69767379760742
			],
			"type":"VEC3"
		},
		{
			"bufferView":7,
			"componentType":5126,
			"count":51320,
			"type":"VEC3"
		},
		{
			"bufferView":8,
			"componentType":5123,
			"count":304080,
			"type":"SCALAR"
		},
		{
			"bufferView":9,
			"componentType":5126,
			"count":49724,
			"max":[
				6.024513244628906,
				43.94944381713867,
				43.95708084106445
			],
			"min":[
				-4.220310211181641,
				-43.95798110961914,
				-43.95033645629883
			],
			"type":"VEC3"
		},
		{
			"bufferView":10,
			"componentType":5126,
			"count":49724,
			"type":"VEC3"
		},
		{
			"bufferView":11,
			"componentType":5123,
			"count":298104,
			"type":"SCALAR"
		},
		{
			"bufferView":12,
			"componentType":5126,
			"count":145018,
			"max":[
				55.35643005371094,
				53.06757354736328,
				53.11102294921875
			],
			"min":[
				-29.643569946289062,
				-53.05504608154297,
				-53.073822021484375
			],
			"type":"VEC3"
		},
		{
			"bufferView":13,
			"componentType":5126,
			"count":145018,
			"type":"VEC3"
		},
		{
			"bufferView":14,
			"componentType":5125,
			"count":869730,
			"type":"SCALAR"
		},
		{
			"bufferView":15,
			"componentType":5126,
			"count":78,
			"max":[
				138.9254150390625,
				3.4431381225585938,
				5.260423183441162
			],
			"min":[
				-111.07460021972656,
				-11.55686092376709,
				-9.726057052612305
			],
			"type":"VEC3"
		},
		{
			"bufferView":16,
			"componentType":5126,
			"count":78,
			"type":"VEC3"
		},
		{
			"bufferView":17,
			"componentType":5123,
			"count":456,
			"type":"SCALAR"
		},
		{
			"bufferView":18,
			"componentType":5126,
			"count":9962,
			"max":[
				26.647541046142578,
				55.66989517211914,
				55.639434814453125
			],
			"min":[
				-13.352462768554688,
				-55.66988754272461,
				-55.639442443847656
			],
			"type":"VEC3"
		},
		{
			"bufferView":19,
			"componentType":5126,
			"count":9962,
			"type":"VEC3"
		},
		{
			"bufferView":20,
			"componentType":5123,
			"count":58692,
			"type":"SCALAR"
		},
		{
			"bufferView":21,
			"componentType":5126,
			"count":31200,
			"max":[
				43.78937530517578,
				35.652488708496094,
				35.721221923828125
			],
			"min":[
				-36.21061706542969,
				-35.72037887573242,
				-35.650848388671875
			],
			"type":"VEC3"
		},
		{
			"bufferView":22,
			"componentType":5126,
			"count":31200,
			"type":"VEC3"
		},
		{
			"bufferView":23,
			"componentType":5123,
			"count":184260,
			"type":"SCALAR"
		},
		{
			"bufferView":24,
			"componentType":5126,
			"count":19484,
			"max":[
				150.92044067382812,
				56.642295837402344,
				71.86701202392578
			],
			"min":[
				-51.634586334228516,
				-78.1421890258789,
				-76.31059265136719
			],
			"type":"VEC3"
		},
		{
			"bufferView":25,
			"componentType":5126,
			"count":19484,
			"type":"VEC3"
		},
		{
			"bufferView":26,
			"componentType":5123,
			"count":116916,
			"type":"SCALAR"
		},
		{
			"bufferView":27,
			"componentType":5126,
			"count":7292,
			"max":[
				-51.63459396362305,
				49.39281463623047,
				63.01702880859375
			],
			"min":[
				-133.03114318847656,
				-69.29393768310547,
				-67.46324157714844
			],
			"type":"VEC3"
		},
		{
			"bufferView":28,
			"componentType":5126,
			"count":7292,
			"type":"VEC3"
		},
		{
			"bufferView":29,
			"componentType":5123,
			"count":43740,
			"type":"SCALAR"
		},
		{
			"bufferView":30,
			"componentType":5126,
			"count":18934,
			"max":[
				194.15625,
				49.188011169433594,
				62.75956726074219
			],
			"min":[
				63.42044448852539,
				-69.04399871826172,
				-67.21331787109375
			],
			"type":"VEC3"
		},
		{
			"bufferView":31,
			"componentType":5126,
			"count":18934,
			"type":"VEC3"
		},
		{
			"bufferView":32,
			"componentType":5123,
			"count":114576,
			"type":"SCALAR"
		},
		{
			"bufferView":33,
			"componentType":5126,
			"count":240,
			"max":[
				10
			],
			"min":[
				0.041666666666666664
			],
			"type":"SCALAR"
		},
		{
			"bufferView":34,
			"componentType":5126,
			"count":240,
			"type":"VEC4"
		},
		{
			"bufferView":35,
			"componentType":5126,
			"count":241,
			"max":[
				10
			],
			"min":[
				0
			],
			"type":"SCALAR"
		},
		{
			"bufferView":36,
			"componentType":5126,
			"count":241,
			"type":"VEC4"
		},
		{
			"bufferView":37,
			"componentType":5126,
			"count":240,
			"type":"VEC4"
		},
		{
			"bufferView":38,
			"componentType":5126,
			"count":240,
			"type":"VEC4"
		},
		{
			"bufferView":39,
			"componentType":5126,
			"count":240,
			"type":"VEC4"
		},
		{
			"bufferView":40,
			"componentType":5126,
			"count":241,
			"type":"VEC4"
		},
		{
			"bufferView":41,
			"componentType":5126,
			"count":240,
			"type":"VEC4"
		}
	],
	"bufferViews":[
		{
			"buffer":0,
			"byteLength":72180,
			"byteOffset":0,
			"target":34962
		},
		{
			"buffer":0,
			"byteLength":72180,
			"byteOffset":72180,
			"target":34962
		},
		{
			"buffer":0,
			"byteLength":72180,
			"byteOffset":144360,
			"target":34963
		},
		{
			"buffer":0,
			"byteLength":114972,
			"byteOffset":216540,
			"target":34962
		},
		{
			"buffer":0,
			"byteLength":114972,
			"byteOffset":331512,
			"target":34962
		},
		{
			"buffer":0,
			"byteLength":111612,
			"byteOffset":446484,
			"target":34963
		},
		{
			"buffer":0,
			"byteLength":615840,
			"byteOffset":558096,
			"target":34962
		},
		{
			"buffer":0,
			"byteLength":615840,
			"byteOffset":1173936,
			"target":34962
		},
		{
			"buffer":0,
			"byteLength":608160,
			"byteOffset":1789776,
			"target":34963
		},
		{
			"buffer":0,
			"byteLength":596688,
			"byteOffset":2397936,
			"target":34962
		},
		{
			"buffer":0,
			"byteLength":596688,
			"byteOffset":2994624,
			"target":34962
		},
		{
			"buffer":0,
			"byteLength":596208,
			"byteOffset":3591312,
			"target":34963
		},
		{
			"buffer":0,
			"byteLength":1740216,
			"byteOffset":4187520,
			"target":34962
		},
		{
			"buffer":0,
			"byteLength":1740216,
			"byteOffset":5927736,
			"target":34962
		},
		{
			"buffer":0,
			"byteLength":3478920,
			"byteOffset":7667952,
			"target":34963
		},
		{
			"buffer":0,
			"byteLength":936,
			"byteOffset":11146872,
			"target":34962
		},
		{
			"buffer":0,
			"byteLength":936,
			"byteOffset":11147808,
			"target":34962
		},
		{
			"buffer":0,
			"byteLength":912,
			"byteOffset":11148744,
			"target":34963
		},
		{
			"buffer":0,
			"byteLength":119544,
			"byteOffset":11149656,
			"target":34962
		},
		{
			"buffer":0,
			"byteLength":119544,
			"byteOffset":11269200,
			"target":34962
		},
		{
			"buffer":0,
			"byteLength":117384,
			"byteOffset":11388744,
			"target":34963
		},
		{
			"buffer":0,
			"byteLength":374400,
			"byteOffset":11506128,
			"target":34962
		},
		{
			"buffer":0,
			"byteLength":374400,
			"byteOffset":11880528,
			"target":34962
		},
		{
			"buffer":0,
			"byteLength":368520,
			"byteOffset":12254928,
			"target":34963
		},
		{
			"buffer":0,
			"byteLength":233808,
			"byteOffset":12623448,
			"target":34962
		},
		{
			"buffer":0,
			"byteLength":233808,
			"byteOffset":12857256,
			"target":34962
		},
		{
			"buffer":0,
			"byteLength":233832,
			"byteOffset":13091064,
			"target":34963
		},
		{
			"buffer":0,
			"byteLength":87504,
			"byteOffset":13324896,
			"target":34962
		},
		{
			"buffer":0,
			"byteLength":87504,
			"byteOffset":13412400,
			"target":34962
		},
		{
			"buffer":0,
			"byteLength":87480,
			"byteOffset":13499904,
			"target":34963
		},
		{
			"buffer":0,
			"byteLength":227208,
			"byteOffset":13587384,
			"target":34962
		},
		{
			"buffer":0,
			"byteLength":227208,
			"byteOffset":13814592,
			"target":34962
		},
		{
			"buffer":0,
			"byteLength":229152,
			"byteOffset":14041800,
			"target":34963
		},
		{
			"buffer":0,
			"byteLength":960,
			"byteOffset":14270952
		},
		{
			"buffer":0,
			"byteLength":3840,
			"byteOffset":14271912
		},
		{
			"buffer":0,
			"byteLength":964,
			"byteOffset":14275752
		},
		{
			"buffer":0,
			"byteLength":3856,
			"byteOffset":14276716
		},
		{
			"buffer":0,
			"byteLength":3840,
			"byteOffset":14280572
		},
		{
			"buffer":0,
			"byteLength":3840,
			"byteOffset":14284412
		},
		{
			"buffer":0,
			"byteLength":3840,
			"byteOffset":14288252
		},
		{
			"buffer":0,
			"byteLength":3856,
			"byteOffset":14292092
		},
		{
			"buffer":0,
			"byteLength":3840,
			"byteOffset":14295948
		}
	],
	"buffers":[
		{
			"byteLength":14299788,
			"uri":"test3.bin"
		}
	]
}
